<?xml version="1.0" standalone="no"?>
<!DOCTYPE svg PUBLIC "-//W3C//DTD SVG 20010904//EN"
 "http://www.w3.org/TR/2001/REC-SVG-20010904/DTD/svg10.dtd">
<svg version="1.0" xmlns="http://www.w3.org/2000/svg"
 width="32.000000pt" height="32.000000pt" viewBox="0 0 32.000000 32.000000"
 preserveAspectRatio="xMidYMid meet">

<g transform="translate(0.000000,32.000000) scale(0.100000,-0.100000)"
fill="#000000" stroke="none">
<path d="M95 270 c-105 -52 -100 -194 9 -235 55 -21 103 -14 144 20 30 25 60
81 49 91 -3 4 -12 -9 -20 -28 -23 -54 -63 -80 -115 -75 -68 7 -81 40 -31 81
27 23 29 31 7 27 -5 0 -8 5 -8 13 0 7 8 13 18 13 48 0 52 3 52 36 0 34 -30 77
-53 77 -7 0 -30 -9 -52 -20z m65 -6 c0 -22 -63 -93 -84 -94 -4 0 -6 9 -3 20 8
30 -13 13 -29 -24 -12 -27 -13 -28 -14 -8 0 51 55 112 103 112 15 0 27 -3 27
-6z m-43 -106 c-3 -8 -6 -5 -6 6 -1 11 2 17 5 13 3 -3 4 -12 1 -19z"/>
<path d="M260 211 c0 -5 7 -15 17 -22 15 -13 15 -12 4 9 -12 23 -21 28 -21 13z"/>
<path d="M240 198 c0 -8 -11 -31 -24 -51 l-25 -36 25 9 c19 8 24 6 24 -6 0
-13 3 -14 14 -5 10 8 11 22 6 51 -8 42 -20 65 -20 38z"/>
</g>
</svg>
